<?xml version="1.0" encoding="iso-8859-1"?>
<!-- Generator: Adobe Illustrator 19.0.0, SVG Export Plug-In . SVG Version: 6.00 Build 0)  -->
<svg version="1.1" id="Capa_1" xmlns="http://www.w3.org/2000/svg" xmlns:xlink="http://www.w3.org/1999/xlink" x="0px" y="0px"
	 viewBox="0 0 512 512" style="enable-background:new 0 0 512 512;" xml:space="preserve">
<g>
	<g>
		<g>
			<circle cx="198" cy="205" r="20"/>
			<path d="M40,60c0-11.028,8.972-20,20-20h81V0H60C26.916,0,0,26.916,0,60v80h40V60z"/>
			<circle cx="315" cy="205" r="20"/>
			<path d="M40,452v-80H0v80c0,33.084,26.916,60,60,60h81v-40H60C48.972,472,40,463.028,40,452z"/>
			<path d="M452,0h-81v40h81c11.028,0,20,8.972,20,20v80h40V60C512,26.916,485.084,0,452,0z"/>
			<path d="M472,452c0,11.028-8.972,20-20,20h-81v40h81c33.084,0,60-26.916,60-60v-80h-40V452z"/>
			<path d="M310.697,277.182c-0.545,1.462-13.811,35.817-53.36,35.817c-40.271,0-55.734-35.193-56.372-36.691l0.06,0.145
				l-37.047,15.086c0.66,1.621,6.855,16.255,20.985,30.863C204.322,342.42,229.349,353,257.336,353
				c28.212,0,52.914-10.727,71.435-31.02c13.528-14.823,19.011-29.687,19.591-31.332l-37.723-13.305L310.697,277.182z"/>
			<path d="M436,255.878c0-99.252-80.748-180-180-180s-180,80.747-180,180s80.748,180,180,180S436,355.13,436,255.878z M256,395.878
				c-77.196,0-140-62.804-140-140s62.804-140,140-140s140,62.804,140,140S333.196,395.878,256,395.878z"/>
		</g>
	</g>
</g>
<g>
</g>
<g>
</g>
<g>
</g>
<g>
</g>
<g>
</g>
<g>
</g>
<g>
</g>
<g>
</g>
<g>
</g>
<g>
</g>
<g>
</g>
<g>
</g>
<g>
</g>
<g>
</g>
<g>
</g>
</svg>
